<?xml version="1.0" ?><!DOCTYPE svg  PUBLIC '-//W3C//DTD SVG 1.0//EN'  'http://www.w3.org/TR/2001/REC-SVG-20010904/DTD/svg10.dtd'><svg height="110px" style="enable-background:new 0 0 110 110;" version="1.0" viewBox="0 0 110 110" width="110px" xml:space="preserve" xmlns="http://www.w3.org/2000/svg" xmlns:xlink="http://www.w3.org/1999/xlink"><g id="R-Multicolor"><circle cx="55" cy="55" r="55" style="fill:#E04F5F;"/><g><g><path d="M83,39L27,59v26c0,0.65,0.316,1.26,0.848,1.635s1.212,0.467,1.825,0.249L83,67.838V39z" style="fill:#FBE158;"/></g><g><path d="M83,39L27,59l28-36C67.21,23,78.326,30.413,83,39z" style="fill:#FCF6C2;"/></g><g><circle cx="52" cy="70" r="1" style="fill:#F3B607;"/></g><g><circle cx="78" cy="46" r="1" style="fill:#F3B607;"/></g><g><circle cx="71" cy="55" r="4" style="fill:#F3B607;"/></g><g><circle cx="40" cy="58" r="1" style="fill:#F3B607;"/></g><g><path d="M44.6,78.831c-0.025,0.018-0.051,0.043-0.07,0.068c-0.721,0.955-0.637,1.928-0.159,2.601     l3.616-1.291C47.884,78.732,46.197,77.691,44.6,78.831z" style="fill:#F3B607;"/></g><g><circle cx="64" cy="65" r="2" style="fill:#F3B607;"/></g><g><circle cx="37" cy="69" r="2" style="fill:#F3B607;"/></g><g><ellipse cx="58" cy="30.5" rx="3" ry="1.5" style="fill:#FACB1B;"/></g><g><ellipse cx="51.5" cy="41.25" rx="2.5" ry="1.25" style="fill:#FACB1B;"/></g><g><ellipse cx="66.5" cy="37" rx="4.5" ry="2" style="fill:#FACB1B;"/></g><g><ellipse cx="42" cy="48" rx="2" ry="1" style="fill:#FACB1B;"/></g></g></g></svg>